<svg width="49" height="24" viewBox="0 0 49 24" fill="none"
  xmlns="http://www.w3.org/2000/svg">
  <path d="M48.4987 12.04C48.4987 5.67404 43.2011 0.5 36.7068 0.5C34.0042 0.5 31.0462 1.89509 27.9268 4.6582C26.4478 5.95848 25.1704 7.35357 24.2023 8.47778C20.8409 4.68529 16.3097 0.5 11.7919 0.5C6.33294 0.5 1.5597 4.30604 0.322697 9.35818C0.107566 10.225 0 11.119 0 12.04C0 18.406 5.2035 23.58 11.7112 23.58C14.4138 23.58 17.4526 22.1849 20.572 19.4218C22.051 18.1215 23.3283 16.7264 24.2964 15.6022C27.6713 19.3947 32.2025 23.58 36.7203 23.58C42.1793 23.58 46.9525 19.774 48.1895 14.7218C48.4046 13.8685 48.5122 12.961 48.5122 12.04H48.4987ZM25.1166 8.46423C26.2192 7.20458 27.3083 6.10747 28.3705 5.17289C31.3689 2.53169 34.179 1.19078 36.7068 1.19078C42.8381 1.19078 47.8265 6.06683 47.8265 12.0536C47.8265 12.8933 47.7323 13.7331 47.5307 14.5458C47.5038 14.6406 47.0869 15.7648 45.9306 16.8619C44.4247 18.2841 42.3675 19.0019 39.8397 19.0019C42.5557 17.81 44.465 15.1417 44.465 12.04C44.465 7.84118 40.996 4.42794 36.7203 4.42794C35.053 4.42794 33.0227 5.48442 30.6563 7.55674C29.594 8.49132 28.5184 9.58843 27.389 10.9158L26.9452 11.4305L24.6729 8.97893L25.1301 8.47778L25.1166 8.46423ZM21.0963 12.1484C20.1955 13.2184 18.9047 14.6948 17.4122 16.0086C14.629 18.4602 12.8272 18.9749 11.7919 18.9749C7.89264 18.9749 4.71945 15.8596 4.71945 12.04C4.71945 8.22043 7.89264 5.13226 11.7919 5.10517C11.9398 5.10517 12.1012 5.11871 12.3163 5.15935C14.3197 5.93139 16.1214 7.17749 17.2105 8.1798C18.0845 8.97893 19.6577 10.6314 21.1098 12.1619L21.0963 12.1484ZM23.3821 15.6022C22.2796 16.8619 21.177 17.959 20.1283 18.8936C17.1702 21.5077 14.2659 22.8757 11.7112 22.8757C8.75317 22.8757 5.9699 21.738 3.89926 19.6927C1.82862 17.6475 0.685732 14.925 0.685732 12.0265C0.685732 11.1867 0.779852 10.3469 0.981538 9.53426C1.00843 9.43944 1.42525 8.31524 2.58158 7.21813C4.0875 5.79594 6.1447 5.07808 8.67249 5.07808C5.95646 6.27 4.04716 8.93829 4.04716 12.04C4.04716 16.2388 7.51616 19.6521 11.7919 19.6521C13.4592 19.6521 15.4895 18.5956 17.8559 16.5233C18.9181 15.5887 19.9938 14.4916 21.1232 13.1642L21.5669 12.6495L23.8393 15.0875L23.3956 15.6022H23.3821ZM27.4158 11.9181C28.3167 10.8481 29.6075 9.37172 31.1 8.05789C33.8832 5.60632 35.685 5.09162 36.7203 5.09162C40.6195 5.09162 43.7927 8.20688 43.7927 12.0265C43.7927 15.846 40.6195 18.9342 36.7203 18.9613C36.5724 18.9613 36.411 18.9478 36.1959 18.9071C34.179 18.1351 32.3908 16.889 31.3017 15.8867C30.4277 15.0875 28.8545 13.4351 27.4024 11.9046L27.4158 11.9181Z" fill="white"/>
</svg>