<svg width="275" height="38" viewBox="0 0 275 38" fill="none" xmlns="http://www.w3.org/2000/svg">
<g clip-path="url(#clip0_693_1616)">
<path d="M95.4419 8.83504V13.68H93.791V1.82404H98.1485C100.356 1.82404 101.853 3.34404 101.853 5.33904C101.853 7.35304 100.375 8.83504 98.1485 8.83504H95.4419ZM97.8413 7.35304C99.281 7.35304 100.164 6.57404 100.164 5.33904C100.164 4.08504 99.281 3.28704 97.8413 3.28704H95.4419V7.35304H97.8413Z" fill="black"/>
<path d="M110.875 9.652C110.875 12.103 109.148 13.927 106.729 13.927C104.291 13.927 102.583 12.103 102.583 9.652C102.583 7.22 104.31 5.396 106.729 5.396C109.148 5.396 110.875 7.201 110.875 9.652ZM109.243 9.652C109.243 7.79 108.053 6.802 106.71 6.802C105.366 6.802 104.176 7.809 104.176 9.652C104.176 11.533 105.366 12.521 106.71 12.521C108.073 12.521 109.243 11.514 109.243 9.652Z" fill="black"/>
<path d="M119.187 5.64301L121.299 11.704L123.084 5.64301H124.754L122.124 13.68H120.492L118.323 7.56201L116.212 13.68H114.542L111.874 5.64301H113.62L115.444 11.704L117.556 5.64301H119.187Z" fill="black"/>
<path d="M133.507 11.381C133.047 12.806 131.741 13.927 129.86 13.927C127.672 13.927 125.771 12.35 125.771 9.63301C125.771 7.10601 127.614 5.37701 129.649 5.37701C132.145 5.37701 133.546 7.08701 133.546 9.59501C133.546 9.80401 133.527 9.99401 133.507 10.089H127.384C127.422 11.533 128.459 12.521 129.841 12.521C131.166 12.521 131.818 11.799 132.125 10.906L133.507 11.381ZM131.895 8.83501C131.857 7.67601 131.108 6.78301 129.668 6.78301C128.325 6.78301 127.518 7.80901 127.461 8.83501H131.895Z" fill="black"/>
<path d="M140.053 7.22001C139.823 7.18201 139.573 7.16301 139.362 7.16301C138.018 7.16301 137.135 7.86601 137.135 9.63301V13.68H135.542V5.64301H137.097V7.04901C137.692 5.81401 138.709 5.51001 139.535 5.51001C139.746 5.51001 139.976 5.54801 140.053 5.56701V7.22001Z" fill="black"/>
<path d="M148.73 11.381C148.269 12.806 146.964 13.927 145.082 13.927C142.894 13.927 140.994 12.35 140.994 9.63301C140.994 7.10601 142.836 5.37701 144.871 5.37701C147.367 5.37701 148.768 7.08701 148.768 9.59501C148.768 9.80401 148.749 9.99401 148.73 10.089H142.625C142.664 11.533 143.7 12.521 145.082 12.521C146.407 12.521 147.06 11.799 147.367 10.906L148.73 11.381ZM147.117 8.83501C147.079 7.67601 146.33 6.78301 144.89 6.78301C143.547 6.78301 142.74 7.80901 142.683 8.83501H147.117Z" fill="black"/>
<path d="M156.619 12.464C156.235 13.224 155.371 13.908 154.104 13.908C151.724 13.908 150.246 12.027 150.246 9.65203C150.246 7.37203 151.801 5.43403 154.104 5.43403C155.544 5.43403 156.312 6.13703 156.581 6.78303V1.57703H158.155V12.198C158.155 12.958 158.232 13.547 158.232 13.68H156.696C156.658 13.49 156.619 13.072 156.619 12.597V12.464ZM154.258 12.502C155.717 12.502 156.6 11.248 156.6 9.59503C156.6 7.94203 155.717 6.80203 154.277 6.80203C152.818 6.80203 151.878 7.98003 151.878 9.63303C151.878 11.286 152.722 12.502 154.258 12.502Z" fill="black"/>
<path d="M164.988 13.68V1.57703H166.562V6.78303C166.946 6.06103 167.906 5.41503 169.25 5.41503C171.707 5.41503 172.974 7.29603 172.974 9.63303C172.974 12.027 171.611 13.908 169.192 13.908C168.002 13.908 167.061 13.395 166.562 12.521V13.68H164.988ZM168.962 6.78303C167.561 6.78303 166.543 7.86603 166.543 9.61403C166.543 11.362 167.561 12.483 168.962 12.483C170.421 12.483 171.361 11.343 171.361 9.61403C171.361 7.88503 170.44 6.78303 168.962 6.78303Z" fill="black"/>
<path d="M175.239 17.043L177.274 12.787L173.78 5.62402H175.604L178.138 11.172L180.576 5.62402H182.284L177.005 17.024H175.239V17.043Z" fill="black"/>
<path d="M66.7634 31.578C61.2157 31.578 55.361 27.987 52.4816 25.384C49.3335 22.534 40.6954 13.262 40.657 13.205C34.975 6.954 27.3542 0 19.7527 0C10.5962 0 2.61075 6.27 0.537598 14.592C0.691165 14.041 3.60894 6.422 14.5314 6.422C20.079 6.422 25.9337 10.013 28.8131 12.616C31.9612 15.466 40.5994 24.738 40.6378 24.795C46.3197 31.046 53.9405 38 61.5421 38C70.6985 38 78.684 31.73 80.7571 23.408C80.6036 23.959 77.6858 31.578 66.7634 31.578Z" fill="#29A3DA"/>
<path d="M40.6569 24.795C40.6377 24.776 38.1422 22.097 35.3588 19.19C33.8423 20.957 31.6732 23.37 29.1777 25.536C24.5131 29.583 21.4994 30.419 19.7717 30.419C13.2451 30.419 7.9087 25.289 7.9087 19C7.9087 12.73 13.226 7.619 19.7717 7.581C20.0021 7.581 20.29 7.6 20.6356 7.657C18.6776 6.916 16.5852 6.422 14.5505 6.422C3.62802 6.422 0.710247 14.041 0.55668 14.592C0.191959 15.998 0 17.48 0 19C0 29.469 8.73412 38 19.6182 38C24.1484 38 29.2353 35.701 34.4758 31.16C36.952 29.013 39.102 26.714 40.7144 24.871C40.6952 24.833 40.676 24.814 40.6569 24.795Z" fill="url(#paint0_linear_693_1616)"/>
<path d="M40.6569 13.205C40.6761 13.224 43.1715 15.903 45.9549 18.81C47.4714 17.043 49.6405 14.63 52.136 12.464C56.8006 8.417 59.8143 7.581 61.542 7.581C68.0686 7.581 73.405 12.711 73.405 19C73.405 25.27 68.0878 30.381 61.542 30.419C61.3116 30.419 61.0237 30.4 60.6782 30.343C62.6361 31.084 64.7285 31.578 66.7632 31.578C77.6857 31.578 80.6035 23.959 80.757 23.408C81.1026 21.983 81.2945 20.52 81.2945 19C81.2945 8.531 72.426 0 61.542 0C57.0117 0 52.0592 2.299 46.8187 6.84C44.3425 8.987 42.1925 11.286 40.5801 13.129C40.5993 13.167 40.6377 13.186 40.6569 13.205Z" fill="url(#paint1_linear_693_1616)"/>
<path d="M93.791 33.174V21.527H96.9583V33.174H93.791Z" fill="black"/>
<path d="M106.748 33.174L102.66 26.258V33.174H99.5884V21.527H103.178L106.844 27.854V21.527H109.935V33.174H106.748Z" fill="black"/>
<path d="M118.093 24.434V33.174H114.983V24.434H111.605V21.527H121.51V24.434H118.093Z" fill="black"/>
<path d="M123.161 33.174V21.527H130.705V24.187H126.251V26.03H130.302V28.595H126.251V30.476H130.724V33.193H123.161V33.174Z" fill="black"/>
<path d="M132.931 33.174V21.527H137.903C140.302 21.527 141.857 23.104 141.857 25.27C141.857 26.847 140.974 28.006 139.688 28.519L141.915 33.174H138.536L136.674 28.956H136.022V33.174H132.931ZM137.327 26.581C138.248 26.581 138.747 26.049 138.747 25.308C138.747 24.567 138.268 24.054 137.327 24.054H136.041V26.562H137.327V26.581Z" fill="black"/>
<path d="M151.033 33.174L146.944 26.258V33.174H143.873V21.527H147.463L151.129 27.854V21.527H154.22V33.174H151.033Z" fill="black"/>
<path d="M156.85 33.174V21.527H164.394V24.187H159.94V26.03H163.99V28.595H159.94V30.476H164.432V33.193H156.85V33.174Z" fill="black"/>
<path d="M172.686 24.434V33.174H169.557V24.434H166.179V21.527H176.084V24.434H172.686Z" fill="black"/>
<path d="M183.704 27.36C183.704 29.298 185.106 30.419 186.526 30.419C188.158 30.419 188.849 29.412 189.098 28.595L192.016 29.431C191.556 31.16 189.981 33.421 186.507 33.421C183.244 33.421 180.479 31.065 180.479 27.379C180.479 23.674 183.282 21.28 186.469 21.28C189.847 21.28 191.402 23.313 191.882 25.061L189.002 26.03C188.791 25.251 188.158 24.244 186.488 24.244C185.182 24.225 183.704 25.232 183.704 27.36Z" fill="black"/>
<path d="M199.061 21.28C202.305 21.28 205.108 23.579 205.108 27.36C205.108 31.141 202.305 33.44 199.061 33.44C195.817 33.44 193.015 31.141 193.015 27.36C193.015 23.579 195.817 21.28 199.061 21.28ZM199.061 30.457C200.443 30.457 201.902 29.488 201.902 27.341C201.902 25.213 200.443 24.244 199.061 24.244C197.679 24.244 196.22 25.213 196.22 27.341C196.22 29.488 197.679 30.457 199.061 30.457Z" fill="black"/>
<path d="M217.412 33.1741V25.9541L214.84 33.1741H212.383L209.811 26.0301V33.1551H206.854V21.5081H210.982L213.631 28.6141L216.145 21.5081H220.388V33.1551H217.412V33.1741Z" fill="black"/>
<path d="M226.127 29.1841V33.1551H223.037V21.5081H227.74C230.197 21.5081 231.867 23.1041 231.867 25.3461C231.867 27.6451 230.197 29.1841 227.74 29.1841H226.127ZM227.337 26.6381C228.143 26.6381 228.757 26.1631 228.757 25.3651C228.757 24.5481 228.162 24.0921 227.337 24.0921H226.146V26.6381H227.337Z" fill="black"/>
<path d="M233.479 28.899V21.527H236.589V28.804C236.589 29.963 237.184 30.571 238.221 30.571C239.257 30.571 239.833 29.963 239.833 28.804V21.527H242.943V28.899C242.943 31.825 240.966 33.44 238.221 33.44C235.476 33.44 233.479 31.825 233.479 28.899Z" fill="black"/>
<path d="M251.082 24.434V33.174H247.953V24.434H244.575V21.527H254.48V24.434H251.082Z" fill="black"/>
<path d="M256.15 33.174V21.527H263.694V24.187H259.24V26.03H263.291V28.595H259.24V30.476H263.732V33.193H256.15V33.174Z" fill="black"/>
<path d="M266.036 33.174V21.527H271.007C273.407 21.527 274.962 23.104 274.962 25.27C274.962 26.847 274.079 28.006 272.793 28.519L275.019 33.174H271.622L269.76 28.956H269.107V33.174H266.036ZM270.412 26.581C271.334 26.581 271.833 26.049 271.833 25.308C271.833 24.567 271.353 24.054 270.412 24.054H269.126V26.562H270.412V26.581Z" fill="black"/>
</g>
<defs>
<linearGradient id="paint0_linear_693_1616" x1="30.0045" y1="35.5144" x2="3.54905" y2="7.83658" gradientUnits="userSpaceOnUse">
<stop offset="0.2195" stop-color="#E51E79"/>
<stop offset="0.892" stop-color="#522780"/>
</linearGradient>
<linearGradient id="paint1_linear_693_1616" x1="51.2785" y1="2.502" x2="77.7339" y2="30.1799" gradientUnits="userSpaceOnUse">
<stop offset="0.21" stop-color="#E95A24"/>
<stop offset="0.6841" stop-color="#F3A83B"/>
</linearGradient>
<clipPath id="clip0_693_1616">
<rect width="275" height="38" fill="white"/>
</clipPath>
</defs>
</svg>
