<?xml version="1.0" encoding="UTF-8"?>
<svg id="Layer_2" data-name="Layer 2" xmlns="http://www.w3.org/2000/svg" viewBox="0 0 136.61 39.73">
  <defs>
    <style>
      .cls-1 {
        fill: #e22f30;
      }

      .cls-2 {
        fill: #1d1d1d;
      }

      .cls-3 {
        fill: #fff;
      }
    </style>
  </defs>
  <g id="Ebene_1" data-name="Ebene 1">
    <g>
      <path class="cls-2" d="M43.85,37.07c0,.8.4,2.15,2.75,2.15.57,0,2.54-.17,2.54-2.11,0-1.16-.81-1.52-1.69-1.73l-1.57-.39c-.27-.06-.68-.17-.68-.67,0-.58.61-.77,1.12-.77,1.18,0,1.28.68,1.32.97h1.29c0-.79-.54-2.08-2.51-2.08-2.09,0-2.48,1.26-2.48,1.98,0,1.42,1,1.65,2.05,1.89l.69.16c.68.16,1.17.3,1.17.8,0,.68-.71.83-1.35.83-1.18,0-1.36-.68-1.36-1.04h-1.29ZM55.33,32.61h-1.37v4.24c0,.78-.38,1.23-1.3,1.23-.63,0-1.15-.39-1.15-1.29v-4.18h-1.37v4.27c.02.65.15,1.17.5,1.56.57.64,1.45.78,2.05.78,1.62,0,2.65-.73,2.65-2.42v-4.19h0ZM56.65,39.05h2.73c1.32,0,1.67-.22,2.04-.58.34-.33.56-.82.56-1.33,0-.64-.21-1.27-1-1.56.27-.13.79-.39.79-1.32,0-.66-.4-1.65-1.98-1.65h-3.13v6.44h0ZM57.94,36.21h1.71c.48,0,.97.22.97.78,0,.66-.38.94-1.03.94h-1.65v-1.72h0ZM57.94,33.72h1.54c.61,0,.99.16.99.69s-.42.72-.95.72h-1.58v-1.41h0ZM67.06,37.09h-.02l-2.56-4.49h-1.42v6.44h1.26v-4.59h.02l2.63,4.59h1.34v-6.44h-1.26v4.49h0ZM74.34,32.61h-4.74v6.44h4.89v-1.14h-3.57v-1.67h3.14v-1.14h-3.14v-1.36h3.42v-1.14h0ZM78.33,33.74h1.95v-1.14h-5.24v1.14h1.95v5.3h1.35v-5.3h0ZM83.24,37.07c0,.8.4,2.15,2.75,2.15.57,0,2.54-.17,2.54-2.11,0-1.16-.81-1.52-1.69-1.73l-1.57-.39c-.27-.06-.68-.17-.68-.67,0-.58.61-.77,1.12-.77,1.18,0,1.28.68,1.32.97h1.29c0-.79-.54-2.08-2.51-2.08-2.09,0-2.48,1.26-2.48,1.98,0,1.42,1,1.65,2.05,1.89l.69.16c.68.16,1.17.3,1.17.8,0,.68-.71.83-1.35.83-1.18,0-1.36-.68-1.36-1.04h-1.29ZM91.75,37.49h-.02l-1.38-4.88h-1.44l2.17,6.44h1.28l2.19-6.44h-1.4l-1.4,4.88h0ZM96.64,32.61h-1.34v6.44h1.34v-6.44h0ZM102.48,37.91h-3.39l3.37-4.25v-1.06h-4.93v1.14h3.24l-3.33,4.17v1.14h5.03v-1.14h0ZM107.96,37.91h-3.39l3.37-4.25v-1.06h-4.93v1.14h3.24l-3.33,4.17v1.14h5.03v-1.14h0ZM113.6,32.61h-4.74v6.44h4.89v-1.14h-3.57v-1.67h3.14v-1.14h-3.14v-1.36h3.42v-1.14h0ZM114.85,39.05h1.32v-2.52h1.39c1,0,1.05.34,1.05,1.22,0,.66.05,1,.14,1.3h1.49v-.17c-.29-.11-.29-.34-.29-1.28,0-1.2-.29-1.4-.82-1.63.64-.22.99-.83.99-1.53,0-.56-.31-1.82-2.03-1.82h-3.26v6.44h0ZM116.17,35.44v-1.72h1.68c.79,0,.94.5.94.84,0,.64-.34.88-1.04.88h-1.58ZM122.51,37.72h2.38l.41,1.33h1.46l-2.27-6.44h-1.55l-2.3,6.44h1.42l.45-1.33h0ZM123.7,34.06h.02l.8,2.55h-1.64l.82-2.55h0Z"/>
      <path class="cls-2" d="M43.85,26.3c0,.8.4,2.15,2.75,2.15.57,0,2.54-.17,2.54-2.11,0-1.16-.81-1.52-1.69-1.73l-1.57-.39c-.27-.06-.68-.17-.68-.67,0-.58.61-.77,1.12-.77,1.18,0,1.28.68,1.32.97h1.29c0-.79-.54-2.08-2.51-2.08-2.09,0-2.48,1.26-2.48,1.98,0,1.42,1,1.65,2.05,1.89l.69.16c.68.16,1.17.3,1.17.8,0,.68-.71.83-1.35.83-1.18,0-1.36-.68-1.36-1.04h-1.29ZM55.62,23.94c-.07-.95-.85-2.28-2.78-2.28-1.66,0-2.96,1.15-2.96,3.4s1.23,3.38,2.94,3.38c1.62,0,2.53-.98,2.8-2.38h-1.35c-.16.79-.68,1.21-1.43,1.21-1.14,0-1.6-1.04-1.6-2.2,0-1.82.95-2.25,1.6-2.25,1.11,0,1.32.73,1.43,1.11h1.35ZM60.46,25.39v2.89h1.35v-6.44h-1.35v2.44h-2.51v-2.44h-1.35v6.44h1.35v-2.89h2.51ZM64.41,28.28h1.26c.69-3.32.8-3.79,1-5.03h.02c.22,1.24.33,1.87,1,5.03h1.29l1.81-6.44h-1.36c-.83,3.54-.94,4.1-1.05,4.71h-.02c-.14-.83-.21-1.18-.96-4.71h-1.43c-.68,3.38-.78,4.04-.9,4.71h-.02c-.12-.74-.2-1.18-1.02-4.71h-1.44l1.82,6.44h0ZM76.33,21.84h-4.74v6.44h4.89v-1.14h-3.57v-1.67h3.14v-1.14h-3.14v-1.36h3.42v-1.14h0ZM78.82,21.84h-1.35v6.44h1.35v-6.44h0ZM84.65,27.14h-3.39l3.37-4.25v-1.06h-4.93v1.14h3.24l-3.33,4.17v1.14h5.03v-1.14h0ZM90.3,21.84h-4.74v6.44h4.89v-1.14h-3.57v-1.67h3.14v-1.14h-3.14v-1.36h3.42v-1.14h0ZM91.55,28.28h1.32v-2.52h1.39c1,0,1.05.34,1.05,1.22,0,.66.05,1,.14,1.3h1.49v-.17c-.29-.11-.29-.34-.29-1.28,0-1.2-.29-1.4-.82-1.63.64-.22,1-.83,1-1.53,0-.56-.31-1.82-2.03-1.82h-3.26v6.44h0ZM92.86,24.67v-1.72h1.68c.79,0,.94.5.94.84,0,.64-.34.88-1.04.88h-1.58ZM100.19,26.3c0,.8.4,2.15,2.75,2.15.56,0,2.54-.17,2.54-2.11,0-1.16-.81-1.52-1.69-1.73l-1.57-.39c-.27-.06-.68-.17-.68-.67,0-.58.61-.77,1.12-.77,1.18,0,1.28.68,1.32.97h1.29c0-.79-.54-2.08-2.51-2.08-2.09,0-2.48,1.26-2.48,1.98,0,1.42,1,1.65,2.04,1.89l.69.16c.68.16,1.17.3,1.17.8,0,.68-.71.83-1.35.83-1.18,0-1.36-.68-1.36-1.04h-1.29ZM111.66,21.84h-1.37v4.24c0,.78-.38,1.23-1.3,1.23-.63,0-1.15-.39-1.15-1.29v-4.18h-1.37v4.27c.02.65.15,1.17.5,1.56.57.64,1.45.78,2.05.78,1.63,0,2.65-.73,2.65-2.42v-4.19h0ZM112.98,28.28h2.73c1.32,0,1.67-.22,2.04-.58.34-.33.56-.82.56-1.33,0-.64-.21-1.27-.99-1.56.27-.13.79-.39.79-1.32,0-.66-.4-1.65-1.98-1.65h-3.13v6.44h0ZM114.28,25.44h1.72c.49,0,.97.22.97.78,0,.66-.38.94-1.03.94h-1.65v-1.72h0ZM114.28,22.95h1.54c.61,0,.99.16.99.69s-.42.72-.95.72h-1.58v-1.41h0ZM123.39,26.32h-.02l-2.56-4.49h-1.42v6.44h1.26v-4.59h.02l2.63,4.59h1.34v-6.44h-1.25v4.49h0ZM130.68,21.84h-4.74v6.44h4.89v-1.14h-3.57v-1.67h3.14v-1.14h-3.14v-1.36h3.42v-1.14h0ZM134.66,22.98h1.95v-1.14h-5.24v1.14h1.95v5.3h1.34v-5.3h0Z"/>
      <path class="cls-2" d="M43.85,15.53c0,.8.4,2.15,2.75,2.15.57,0,2.54-.17,2.54-2.11,0-1.16-.81-1.52-1.69-1.73l-1.57-.39c-.27-.06-.68-.17-.68-.67,0-.58.61-.77,1.12-.77,1.18,0,1.28.68,1.32.97h1.29c0-.79-.54-2.08-2.51-2.08-2.09,0-2.48,1.26-2.48,1.98,0,1.42,1,1.65,2.05,1.89l.69.16c.68.16,1.17.3,1.17.8,0,.68-.71.83-1.35.83-1.18,0-1.36-.68-1.36-1.04h-1.29ZM55.33,11.07h-1.37v4.24c0,.78-.38,1.23-1.3,1.23-.63,0-1.15-.39-1.15-1.29v-4.18h-1.37v4.27c.02.65.15,1.17.5,1.56.57.64,1.45.78,2.05.78,1.62,0,2.65-.73,2.65-2.42v-4.19h0ZM56.65,17.51h2.73c1.32,0,1.67-.22,2.04-.58.34-.33.56-.82.56-1.33,0-.64-.21-1.27-1-1.56.27-.13.79-.39.79-1.32,0-.66-.4-1.65-1.98-1.65h-3.13v6.44h0ZM57.94,14.67h1.71c.48,0,.97.22.97.78,0,.66-.38.94-1.03.94h-1.65v-1.72h0ZM57.94,12.18h1.54c.61,0,.99.16.99.69s-.42.72-.95.72h-1.58v-1.41h0ZM67.06,15.55h-.02l-2.56-4.49h-1.42v6.44h1.26v-4.59h.02l2.63,4.59h1.34v-6.44h-1.26v4.49h0ZM74.34,11.07h-4.74v6.44h4.89v-1.14h-3.57v-1.67h3.14v-1.14h-3.14v-1.36h3.42v-1.14h0ZM78.33,12.21h1.95v-1.14h-5.24v1.14h1.95v5.3h1.35v-5.3h0ZM83.24,15.53c0,.8.4,2.15,2.75,2.15.57,0,2.54-.17,2.54-2.11,0-1.16-.81-1.52-1.69-1.73l-1.57-.39c-.27-.06-.68-.17-.68-.67,0-.58.61-.77,1.12-.77,1.18,0,1.28.68,1.32.97h1.29c0-.79-.54-2.08-2.51-2.08-2.09,0-2.48,1.26-2.48,1.98,0,1.42,1,1.65,2.05,1.89l.69.16c.68.16,1.17.3,1.17.8,0,.68-.71.83-1.35.83-1.18,0-1.36-.68-1.36-1.04h-1.29ZM94.71,11.07h-1.37v4.24c0,.78-.38,1.23-1.3,1.23-.63,0-1.15-.39-1.15-1.29v-4.18h-1.37v4.27c.02.65.15,1.17.5,1.56.57.64,1.45.78,2.05.78,1.62,0,2.65-.73,2.65-2.42v-4.19h0ZM97.27,11.07h-1.34v6.44h1.34v-6.44h0ZM98.2,15.53c0,.8.4,2.15,2.76,2.15.57,0,2.54-.17,2.54-2.11,0-1.16-.81-1.52-1.69-1.73l-1.57-.39c-.27-.06-.68-.17-.68-.67,0-.58.61-.77,1.12-.77,1.18,0,1.28.68,1.32.97h1.29c0-.79-.54-2.08-2.51-2.08-2.09,0-2.48,1.26-2.48,1.98,0,1.42,1,1.65,2.05,1.89l.69.16c.68.16,1.17.3,1.17.8,0,.68-.71.83-1.35.83-1.18,0-1.36-.68-1.37-1.04h-1.29ZM104.18,15.53c0,.8.4,2.15,2.75,2.15.57,0,2.54-.17,2.54-2.11,0-1.16-.81-1.52-1.69-1.73l-1.57-.39c-.27-.06-.68-.17-.68-.67,0-.58.61-.77,1.12-.77,1.18,0,1.28.68,1.32.97h1.29c0-.79-.54-2.08-2.51-2.08-2.09,0-2.48,1.26-2.48,1.98,0,1.42,1,1.65,2.05,1.89l.69.16c.68.16,1.17.3,1.17.8,0,.68-.71.83-1.35.83-1.18,0-1.35-.68-1.36-1.04h-1.29ZM115.24,11.07h-4.74v6.44h4.89v-1.14h-3.57v-1.67h3.14v-1.14h-3.14v-1.36h3.42v-1.14h0Z"/>
      <path class="cls-2" d="M43.85,4.76c0,.8.4,2.15,2.75,2.15.57,0,2.54-.17,2.54-2.11,0-1.16-.81-1.52-1.69-1.73l-1.57-.39c-.27-.06-.68-.17-.68-.67,0-.58.61-.77,1.12-.77,1.18,0,1.28.68,1.32.97h1.29c0-.79-.54-2.08-2.51-2.08-2.09,0-2.48,1.26-2.48,1.98,0,1.42,1,1.65,2.05,1.89l.69.16c.68.16,1.17.3,1.17.8,0,.68-.71.83-1.35.83-1.18,0-1.36-.68-1.36-1.04h-1.29ZM51.45,6.74h1.26c.69-3.32.8-3.79,1-5.03h.02c.22,1.24.33,1.87,1,5.03h1.29l1.81-6.44h-1.36c-.83,3.54-.94,4.1-1.05,4.71h-.02c-.14-.83-.21-1.18-.96-4.71h-1.43c-.68,3.38-.78,4.04-.9,4.71h-.02c-.12-.74-.2-1.18-1.02-4.71h-1.44l1.82,6.44h0ZM59.88.3h-1.35v6.44h1.35V.3h0ZM60.8,4.76c0,.8.4,2.15,2.75,2.15.57,0,2.54-.17,2.54-2.11,0-1.16-.81-1.52-1.69-1.73l-1.57-.39c-.27-.06-.68-.17-.68-.67,0-.58.61-.77,1.12-.77,1.18,0,1.28.68,1.32.97h1.29c0-.79-.54-2.08-2.51-2.08-2.09,0-2.48,1.26-2.48,1.98,0,1.42,1,1.65,2.05,1.89l.69.16c.68.16,1.17.3,1.17.8,0,.68-.71.83-1.35.83-1.18,0-1.36-.68-1.36-1.04h-1.29ZM66.79,4.76c0,.8.4,2.15,2.75,2.15.57,0,2.54-.17,2.54-2.11,0-1.16-.81-1.52-1.69-1.73l-1.57-.39c-.27-.06-.68-.17-.68-.67,0-.58.61-.77,1.12-.77,1.18,0,1.28.68,1.32.97h1.29c0-.79-.54-2.08-2.51-2.08-2.09,0-2.48,1.26-2.48,1.98,0,1.42,1,1.65,2.05,1.89l.69.16c.68.16,1.17.3,1.17.8,0,.68-.71.83-1.35.83-1.18,0-1.36-.68-1.36-1.04h-1.29ZM75.27,4.76c0,.8.4,2.15,2.75,2.15.57,0,2.54-.17,2.54-2.11,0-1.16-.81-1.52-1.69-1.73l-1.57-.39c-.27-.06-.68-.17-.68-.67,0-.58.61-.77,1.12-.77,1.18,0,1.28.68,1.32.97h1.29c0-.79-.54-2.08-2.51-2.08-2.09,0-2.48,1.26-2.48,1.98,0,1.42,1,1.65,2.05,1.89l.69.16c.68.16,1.17.3,1.17.8,0,.68-.71.83-1.35.83-1.18,0-1.36-.68-1.36-1.04h-1.29ZM86.74.3h-1.37v4.24c0,.78-.38,1.23-1.3,1.23-.63,0-1.15-.39-1.15-1.29V.3h-1.37v4.27c.02.65.15,1.17.5,1.56.57.64,1.45.78,2.05.78,1.62,0,2.65-.73,2.65-2.42V.3h0ZM88.06,6.74h2.73c1.32,0,1.67-.22,2.04-.58.34-.33.56-.82.56-1.33,0-.64-.21-1.27-1-1.56.27-.13.79-.39.79-1.32,0-.66-.4-1.65-1.98-1.65h-3.13v6.44h0ZM89.36,3.91h1.71c.48,0,.97.22.97.78,0,.66-.38.94-1.03.94h-1.65v-1.72h0ZM89.36,1.41h1.54c.61,0,.99.16.99.69s-.42.72-.95.72h-1.58v-1.41h0ZM98.47,4.79h-.02l-2.56-4.49h-1.42v6.44h1.26V2.15h.02l2.63,4.59h1.35V.3h-1.26v4.49h0ZM105.76.3h-4.74v6.44h4.89v-1.14h-3.57v-1.67h3.14v-1.14h-3.14v-1.36h3.42V.3h0ZM109.74,1.44h1.95V.3h-5.24v1.14h1.95v5.3h1.35V1.44h0Z"/>
      <polygon class="cls-1" points="0 0 0 39.73 39.73 39.73 39.73 0 0 0 0 0"/>
      <polygon class="cls-3" points="33.4 15.98 23.74 15.98 23.74 6.33 15.98 6.33 15.98 15.98 6.33 15.98 6.33 23.74 15.98 23.74 15.98 33.4 23.74 33.4 23.74 23.74 33.4 23.74 33.4 15.98 33.4 15.98"/>
    </g>
  </g>
</svg>